<?xml version="1.0" encoding="utf-8"?>
<!-- Generator: Adobe Illustrator 16.0.0, SVG Export Plug-In . SVG Version: 6.00 Build 0)  -->
<!DOCTYPE svg PUBLIC "-//W3C//DTD SVG 1.1//EN" "http://www.w3.org/Graphics/SVG/1.1/DTD/svg11.dtd">
<svg version="1.1" id="Layer_1" xmlns="http://www.w3.org/2000/svg" xmlns:xlink="http://www.w3.org/1999/xlink" x="0px" y="0px"
	 width="512px" height="512px" viewBox="0 0 512 512" enable-background="new 0 0 512 512" xml:space="preserve">
<path fill="#64F4F4" d="M512,256c0,141.387-114.613,256-256,256S0,397.387,0,256S114.614,0,256,0S512,114.613,512,256z"/>
<path fill="#40D3CF" d="M504.684,316.934L357.098,169.348l-51.395,98.488l-98.488-98.488l-84.586,164.77l174.566,174.566
	C398.91,492.227,480.528,415.852,504.684,316.934z"/>
<path fill="#FC5557" d="M68.641,223.363c0-44.082,35.734-79.816,79.82-79.816c34.402,0,63.727,21.77,74.938,52.285
	c11.215-30.516,40.535-52.285,74.941-52.285c44.086,0,79.82,35.734,79.82,79.816c0,115.824-154.762,176.949-154.762,176.949
	S68.641,336.676,68.641,223.363z"/>
<path fill="#E21E28" d="M298.34,143.547c-34.406,0-63.727,21.77-74.941,52.285v204.484c0,0,154.762-61.125,154.762-176.953
	C378.16,179.281,342.426,143.547,298.34,143.547z"/>
<path fill="#FFFFFF" d="M421.719,332.082c0,52.113-42.246,94.359-94.359,94.359S233,384.195,233,332.082
	s42.246-94.359,94.359-94.359S421.719,279.969,421.719,332.082z"/>
<path fill="#E9EDF5" d="M327.36,237.723c-0.008,0-0.016,0-0.027,0v188.719h0.027c52.113,0,94.359-42.246,94.359-94.359
	S379.473,237.723,327.36,237.723z"/>
<path fill="#FFBB22" d="M384.942,312.582H346.86V274.5h-39v38.082h-38.082v39h38.082v38.082h39v-38.082h38.082V312.582z"/>
<path fill="#FFA300" d="M346.86,312.582V274.5h-19.527v115.164h19.527v-38.082h38.082v-39H346.86z"/>
</svg>
